# xmcd
#
# Track frame offsets:
#	150
#	12715
#	32331
#	45132
#	61136
#	75086
#	89483
#	117082
#	139341
#	162040
#	179954
#	193148
#	201890
#	216755
#	226644
#	249242
#	254548
#	259040
#
# Disc length: 3720 seconds
#
# Revision: 0
# Processed by: cddbd v1.5.2PL0 Copyright (c) Steve Scherf et al.
# Submitted via: audiograbber 1.83.01
#
DISCID=eb0e8612
DTITLE=Fleetwood Mac - Rumours [remastered 2004] [CD 2) [Bonus Material]
DYEAR=2004
DGENRE=Rock
TTITLE0=Second Hand News [outtake]
TTITLE1=Dreams [outtake]
TTITLE2=Brushes (Never Going Back Again) [outtake]
TTITLE3=Don't Stop [outtake]
TTITLE4=Go Your Own Way [outtake]
TTITLE5=Songbird [outtake]
TTITLE6=Silver Springs [outtake]
TTITLE7=You Make Loving Fun [outtake]
TTITLE8=Gold Dust Woman #1 [outtake]
TTITLE9=Oh Daddy [outtake]
TTITLE10=Think About It [outtake]
TTITLE11=Never Going Back Again [early demo]
TTITLE12=Planets Of The Universe [early demo]
TTITLE13=Butter Cookie (Keep Me There) [early demo]
TTITLE14=Gold Dust Woman [early demo]
TTITLE15=Doesn't Anything Last [early demo]
TTITLE16=Mic The Screecher [jam session]
TTITLE17=For Duster (The Blues) [jam session]
EXTD=
EXTT0=
EXTT1=
EXTT2=
EXTT3=
EXTT4=
EXTT5=
EXTT6=
EXTT7=
EXTT8=
EXTT9=
EXTT10=
EXTT11=
EXTT12=
EXTT13=
EXTT14=
EXTT15=
EXTT16=
EXTT17=
PLAYORDER=
